<?xml version="1.0" encoding="UTF-8"?>
<svg width="112.71mm" height="57.256mm" version="1.1" viewBox="0 0 112.71 57.256" xmlns="http://www.w3.org/2000/svg">
 <g transform="translate(-60.06 -124.74)">
  <g transform="matrix(.26458 0 0 .26458 128.06 79.233)">
   <rect class="st0" x="-210.1" y="204.8" width="336" height="85" fill="none"/>
   <g class="st1" enable-background="new" fill="#fff">
    <path class="st2" d="m-141.7 288.4h-15.6l-12.9-33.6-5.9 5.9v27.7h-14.6v-78.5h14.6v38.9l5.1-11.8 13.4-27.2h15.6l-18.2 34z"/>
    <path class="st2" d="m-96.4 288.4h-35.4v-78.5h35.4v12.6h-20.8v18.7h19.3v12.7h-19.3v21.8h20.8z"/>
    <path class="st2" d="m-67.4 257.8v30.6h-14.6v-78.5h19.1c8.1 0 14.1 1.9 17.9 5.7s5.8 9.7 5.8 17.6c0 9.9-3.3 16.8-10 20.8l15.1 34.4h-15.6l-12.4-30.6zm0-12.5h3.8c3.4 0 5.9-1 7.4-2.9 1.5-2 2.3-4.9 2.3-8.7 0-4-0.8-6.9-2.4-8.6s-4.1-2.6-7.4-2.6h-3.7z"/>
    <path class="st2" d="m30.9 288.4h-17.8l-24.3-56.9h-0.7c0.9 4.3 1.3 9 1.3 14v42.9h-13.5v-78.5h17.9l24.1 56.3h0.6c-0.7-3.8-1-8.2-1-13.4v-42.9h13.4z"/>
    <path class="st2" d="m61.5 209.9 0.8 1.2c-1.8 7.1-4.9 15.6-9.5 25.7h-10.9c2.3-9.2 4.1-18.1 5.4-26.9z"/>
    <path class="st2" d="m109.1 266.8c0 7.3-1.9 13-5.6 16.9s-9.1 5.9-16 5.9c-6.8 0-12.7-1.3-17.5-4v-14.6c5.9 3.8 11.3 5.7 16.2 5.7 2.8 0 4.9-0.8 6.3-2.3s2.1-3.6 2.1-6.3c0-2.6-0.8-5-2.5-7.2s-4.5-4.6-8.3-7.2c-3.4-2.3-5.9-4.6-7.7-6.7-1.7-2.1-3.1-4.5-4-7.2-0.9-2.6-1.4-5.7-1.4-9.2 0-6.7 1.9-12.1 5.6-16s8.8-5.9 15.1-5.9c6 0 11.8 1.7 17.3 5l-4.8 11.7c-1.7-1-3.5-1.9-5.4-2.7s-3.9-1.2-6-1.2c-2.4 0-4.2 0.8-5.5 2.3-1.3 1.6-1.9 3.7-1.9 6.4s0.8 5 2.3 6.9c1.5 2 4.2 4.2 8 6.7 5.1 3.4 8.7 6.9 10.7 10.5 2 3.8 3 7.9 3 12.5z"/>
   </g>
   <polyline class="st3" points="88 344.5 165.5 344.5 165.5 175.5 -253.5 175.5 -253.5 344.5 -173 344.5" fill="none" stroke="#fff" stroke-miterlimit="10" stroke-width="7"/>
   <rect class="st0" x="-136.7" y="320.1" width="254.4" height="68.3" fill="none"/>
   <g class="st1" enable-background="new" fill="#ce921d">
    <path class="st4" d="m-94.7 344.8h-2l1-3.8c0.7 0.1 1.4 0.2 2.1 0.4 1.7-5.8 2.9-12 5.1-17.9-7.7 2-17.1 2.3-17.1 6.6 0 2.2 3 2.9 6.7 2.9l-0.6 3.8c-7.7 0-11.9-2.8-11.9-6 0-2.3 2.1-4.6 6.6-6.3 4.7-1.7 12.1-2.5 17.5-3.8 0.8-1.7 1.6-3.3 2.6-4.8l6.2 0.7c-0.6 2.1-2 3.6-4 4.7-2.8 7.3-3.4 13.7-5.4 20.7 13.5-4.5 12.3-28.1 30.1-28.1 5 0 7.3 1.9 7.3 4.3 0 0.2-0.1 0.4-0.1 0.6h-5.1v-0.2c0-1.2-1-2.3-2.9-2.3-10.6 0-9 22.9-28.1 27.6 13.3 7.9 9.2 27.8 20.8 27.8 4.4 0 6.4-1.6 8-4.2l5.4 1.3c-3.6 4.5-8 5.7-13.7 5.7-18.1 0-15.9-22.1-22.7-29.4-3.6 10.7-9.6 21.2-28.9 21.2-14.3 0-20.7-6.3-20.7-12.9 0-7.2 7.7-14.8 21.1-14.8 8.7 0 13.4 4.2 13.4 9.2 0 2.4-1.1 5-3.3 7.3l-5.6-2c2-2.1 2.9-4.3 2.9-6.2 0-3.3-2.8-5.7-7.9-5.7-8.9 0-14.6 6.4-14.6 12.4 0 5.4 4.5 10.4 15.3 10.4 12.7-0.1 19-9.4 22.5-19.2z"/>
    <path class="st4" d="m-63.7 335c-2.4 7-4.5 12.2-4.5 15.9 0 1.3 0.8 1.5 1.4 1.5 1.8 0 4.1-2.5 7.2-7.7 0.3 0 2 0.3 2 0.6-3.1 5.1-5.5 10.3-11.2 10.3-3.8 0-5-2.3-5-5.4 0-5 3.1-12.2 4.3-15.4h5.8zm-5.1-4.9c0-1.6 1.8-3.6 4.9-3.6 2.3 0 3.3 1.1 3.3 2.3 0 1.6-1.8 3.5-4.9 3.5-2.3 0.1-3.3-1-3.3-2.2z"/>
    <path class="st4" d="m-48.8 324.4c-0.3 3.7-1 7.1-2.2 10.7 1.1 0 2.1 0 2.7-0.1l-0.6 2.1h-2.9c-0.6 1.7-1.3 3.5-2.2 5.3-0.7 3.1-1 5.4-1 7.1 0 1.9 0.5 2.9 1.4 2.9 1.9 0 4.6-4.2 6.7-7.7 0.4 0 2 0.4 2 0.6-4.1 7.2-6.3 10.3-10.8 10.3-3.1 0-4.3-2.4-4.3-6.3 0-3.3 0.8-7.7 2.4-12.3h-3.1l0.5-2.1h3.1c0.9-3.1 1.8-6.1 3.4-10.7h4.9z"/>
    <path class="st4" d="m-35.9 343.8c1.4-1.5 2.3-3.5 2.3-4.9 0-0.9-0.4-1.6-1.4-1.6-3.6 0-6.8 5.4-6.8 9.6 0 2.8 1.4 5.2 5 5.2 3.3 0 7.1-2.4 10.2-7.4 0.4 0 2 0.4 2 0.6-2.1 3.6-7.5 10.6-14.9 10.6-5.4 0-7.8-3.6-7.8-7.9 0-6.1 4.9-13.5 12.6-13.5 4 0 5.6 2.1 5.6 4.7 0 1.9-0.9 4.1-2.3 6.1z"/>
    <path class="st4" d="m-29.3 355.5c-0.1-0.4-0.1-0.8-0.1-1.2 0-3.6 2.2-7.2 2.2-7.2 2.4-9.5 5.5-20.5 8.4-24.7 1.3-1.9 3.8-2.8 5.9-2.8 3.5 0 4.8 1.1 4.8 2.8 0 3.6-6 9.8-10.3 13.2-0.2 0.8-0.5 1.6-0.8 2.5 2.3-2.3 5.2-3.6 8.2-3.6 2.4 0 4 1 4 3.2 0 4.2-4.5 9.5-4.5 13.2 0 1.3 0.8 1.5 1.4 1.5 1.8 0 4.1-2.5 7.2-7.7 0.4 0 2 0.4 2 0.6-3.1 5.1-6.2 10.3-11.9 10.3-2.4 0-4.7-1.3-4.7-4 0-4.9 4.5-9.9 4.5-13.1 0-0.5-0.3-0.9-1.1-0.9-3 0-6.8 4.4-9.3 17.8h-5.9zm16.6-33c-1.1 0-2 1.9-4.5 9.4 2-2.4 5.2-6.4 5.2-8.7 0-0.4-0.3-0.7-0.7-0.7z"/>
    <path class="st4" d="m16.9 344.8c0.4 0 2 0.4 2 0.6-3.5 5.9-7 10.6-13.8 10.6-6.1 0-8.6-3.6-8.6-7.8 0-6.1 5.2-13.6 13-13.6 3.5 0 5.2 1.6 5.2 3.7 0 3.2-4.2 7.5-12.4 8.4v0.7c0 2.7 1.2 4.9 4.4 4.9 4.1-0.1 7.6-2.9 10.2-7.5zm-14.4 0.1c5.2-1.7 7.5-4.8 7.5-6.4 0-0.7-0.4-1.1-1.1-1.1-2.8 0-5.5 3.8-6.4 7.5z"/>
    <path class="st4" d="m13.4 355.5s0.6-4.1 2.6-7.5c1.4-5.1 2.6-9.6 3.4-13h6l-0.8 3c2.2-2.2 5-3.5 8-3.5 2.4 0 4 1 4 3.2 0 4.2-4.5 9.5-4.5 13.2 0 1.3 0.8 1.5 1.4 1.5 1.8 0 4.1-2.5 7.2-7.7 0.4 0 2 0.4 2 0.6-3.1 5.1-6.2 10.3-11.9 10.3-2.4 0-4.7-1.3-4.7-4 0-4.9 4.5-9.9 4.5-13.1 0-0.5-0.3-0.9-1.1-0.9-1.7 0-4.8 2.1-7.1 8.5l-2.8 9.3h-6.2z"/>
   </g>
   <rect class="st0" x="-134.2" y="320.1" width="216" height="68.3" fill="none"/>
   <g class="st1" enable-background="new" fill="#fff">
    <path class="st2" d="m-92.1 344.8h-2l1-3.8c0.7 0.1 1.4 0.2 2.1 0.4 1.7-5.8 2.9-12 5.1-17.9-7.7 2-17.1 2.3-17.1 6.6 0 2.2 3 2.9 6.7 2.9l-0.6 3.8c-7.7 0-11.9-2.8-11.9-6 0-2.3 2.1-4.6 6.6-6.3 4.7-1.7 12.1-2.5 17.5-3.8 0.8-1.7 1.6-3.3 2.6-4.8l6.2 0.7c-0.6 2.1-2 3.6-4 4.7-2.8 7.3-3.4 13.7-5.4 20.7 13.5-4.5 12.3-28.1 30.1-28.1 5 0 7.3 1.9 7.3 4.3 0 0.2-0.1 0.4-0.1 0.6h-5.1v-0.2c0-1.2-1-2.3-2.9-2.3-10.6 0-9 22.9-28.1 27.6 13.3 7.9 9.2 27.8 20.8 27.8 4.4 0 6.4-1.6 8-4.2l5.4 1.3c-3.6 4.5-8 5.7-13.7 5.7-18.1 0-15.9-22.1-22.7-29.4-3.6 10.7-9.6 21.2-28.9 21.2-14.3 0-20.7-6.3-20.7-12.9 0-7.2 7.7-14.8 21.1-14.8 8.7 0 13.4 4.2 13.4 9.2 0 2.4-1.1 5-3.3 7.3l-5.6-2c2-2.1 2.9-4.3 2.9-6.2 0-3.3-2.8-5.7-7.9-5.7-8.9 0-14.6 6.4-14.6 12.4 0 5.4 4.5 10.4 15.3 10.4 12.6-0.1 19-9.4 22.5-19.2z"/>
    <path class="st2" d="m-61.2 335c-2.4 7-4.5 12.2-4.5 15.9 0 1.3 0.8 1.5 1.4 1.5 1.8 0 4.1-2.5 7.2-7.7 0.3 0 2 0.3 2 0.6-3.1 5.1-5.5 10.3-11.2 10.3-3.8 0-5-2.3-5-5.4 0-5 3.1-12.2 4.3-15.4h5.8zm-5-4.9c0-1.6 1.8-3.6 4.9-3.6 2.3 0 3.3 1.1 3.3 2.3 0 1.6-1.8 3.5-4.9 3.5-2.3 0.1-3.3-1-3.3-2.2z"/>
    <path class="st2" d="m-46.2 324.4c-0.3 3.7-1 7.1-2.2 10.7 1.1 0 2.1 0 2.7-0.1l-0.6 2.1h-2.9c-0.6 1.7-1.3 3.5-2.2 5.3-0.7 3.1-1 5.4-1 7.1 0 1.9 0.5 2.9 1.4 2.9 1.9 0 4.6-4.2 6.7-7.7 0.4 0 2 0.4 2 0.6-4.1 7.2-6.3 10.3-10.8 10.3-3.1 0-4.3-2.4-4.3-6.3 0-3.3 0.8-7.7 2.4-12.3h-3.1l0.5-2.1h3.1c0.9-3.1 1.8-6.1 3.4-10.7h4.9z"/>
    <path class="st2" d="m-33.3 343.8c1.4-1.5 2.3-3.5 2.3-4.9 0-0.9-0.4-1.6-1.4-1.6-3.6 0-6.8 5.4-6.8 9.6 0 2.8 1.4 5.2 5 5.2 3.3 0 7.1-2.4 10.2-7.4 0.4 0 2 0.4 2 0.6-2.2 3.7-7.6 10.7-15 10.7-5.4 0-7.8-3.6-7.8-7.9 0-6.1 4.9-13.5 12.6-13.5 4 0 5.6 2.1 5.6 4.7 0 1.9-0.9 4.1-2.3 6.1z"/>
    <path class="st2" d="m-26.8 355.5c-0.1-0.4-0.1-0.8-0.1-1.2 0-3.6 2.2-7.2 2.2-7.2 2.4-9.5 5.5-20.5 8.4-24.7 1.3-1.9 3.8-2.8 5.9-2.8 3.5 0 4.8 1.1 4.8 2.8 0 3.6-6 9.8-10.3 13.2-0.2 0.8-0.5 1.6-0.8 2.5 2.3-2.3 5.2-3.6 8.2-3.6 2.4 0 4 1 4 3.2 0 4.2-4.5 9.5-4.5 13.2 0 1.3 0.8 1.5 1.4 1.5 1.8 0 4.1-2.5 7.2-7.7 0.4 0 2 0.4 2 0.6-3.1 5.1-6.2 10.3-11.9 10.3-2.4 0-4.7-1.3-4.7-4 0-4.9 4.5-9.9 4.5-13.1 0-0.5-0.3-0.9-1.1-0.9-3 0-6.8 4.4-9.3 17.8h-5.9zm16.7-33c-1.1 0-2 1.9-4.5 9.4 2-2.4 5.2-6.4 5.2-8.7-0.1-0.4-0.3-0.7-0.7-0.7z"/>
    <path class="st2" d="m19.5 344.8c0.4 0 2 0.4 2 0.6-3.5 5.9-7 10.6-13.8 10.6-6.1 0-8.6-3.6-8.6-7.8 0-6.1 5.2-13.6 13-13.6 3.5 0 5.2 1.6 5.2 3.7 0 3.2-4.2 7.5-12.4 8.4v0.7c0 2.7 1.2 4.9 4.4 4.9 4.1-0.1 7.5-2.9 10.2-7.5zm-14.4 0.1c5.2-1.7 7.5-4.8 7.5-6.4 0-0.7-0.4-1.1-1.1-1.1-2.8 0-5.6 3.8-6.4 7.5z"/>
    <path class="st2" d="m16 355.5s0.6-4.1 2.6-7.5c1.4-5.1 2.6-9.6 3.4-13h6l-0.8 3c2.2-2.2 5-3.5 8-3.5 2.4 0 4 1 4 3.2 0 4.2-4.5 9.5-4.5 13.2 0 1.3 0.8 1.5 1.4 1.5 1.8 0 4.1-2.5 7.2-7.7 0.4 0 2 0.4 2 0.6-3.1 5.1-6.2 10.3-11.9 10.3-2.4 0-4.7-1.3-4.7-4 0-4.9 4.5-9.9 4.5-13.1 0-0.5-0.3-0.9-1.1-0.9-1.7 0-4.8 2.1-7.1 8.5l-2.8 9.3h-6.2z"/>
   </g>
   <path class="st5" d="m-170 317.7" fill="none" stroke="#0f0202" stroke-miterlimit="10" stroke-width="3"/>
   <path class="st5" d="m90.7 317.7" fill="none" stroke="#0f0202" stroke-miterlimit="10" stroke-width="3"/>
  </g>
 </g>
 <style type="text/css">.st0{fill:none;}
	.st1{fill:#FFFFFF;}
	.st2{font-family:'OpenSansCondensed-Bold';}
	.st3{font-size:110px;}
	.st4{letter-spacing:3;}
	.st5{fill:none;stroke:#FFFFFF;stroke-width:7;stroke-miterlimit:10;}
	.st6{fill:#CE921D;}
	.st7{font-family:'Lavanderia-Sturdy';}
	.st8{font-size:45px;}
	.st9{fill:none;stroke:#0F0202;stroke-width:3;stroke-miterlimit:10;}</style>
 <style type="text/css">.st0{fill:none;}
	.st1{enable-background:new    ;}
	.st2{fill:#FFFFFF;}
	.st3{fill:none;stroke:#FFFFFF;stroke-width:7;stroke-miterlimit:10;}
	.st4{fill:#CE921D;}
	.st5{fill:none;stroke:#0F0202;stroke-width:3;stroke-miterlimit:10;}</style>
</svg>
